<svg width="167" height="50" viewBox="0 0 167 50" fill="none" xmlns="http://www.w3.org/2000/svg">
<path d="M0 22.6379C0 25.4196 1.45837 27.9875 3.78741 29.4293C3.27309 30.501 3.0045 31.676 3.0045 32.8774C3.0045 36.3339 7.27256 39.1349 10.0672 40.598C10.3657 44.7297 13.8211 48 18.0257 48C20.4037 48 22.5791 47.0395 24.0664 45.3806C25.5667 47.0393 27.6958 48 29.9743 48C32.7404 48 35.3577 46.5162 36.7939 44.1546C37.4569 43.0642 37.8526 41.8177 37.9359 40.5443C37.9364 40.5369 37.9374 40.5296 37.9379 40.5222C38.1064 40.4364 38.3107 40.329 38.5601 40.1943C39.1874 39.8557 40.1348 39.3074 41.0859 38.6187C43.6801 36.7404 44.9955 34.8088 44.9955 32.8774C44.9955 31.676 44.727 30.501 44.2127 29.4293C46.5416 27.9875 48 25.4196 48 22.6379C48 19.9497 46.6657 17.4824 44.4657 16.0087C44.8138 15.0993 44.9955 14.1257 44.9955 13.1498C44.9955 10.2657 43.4721 7.65234 40.991 6.22819C39.9482 2.59378 35.7974 0 30.9132 0C28.3862 0 25.9124 0.741653 24.0053 2.04947C22.1099 0.724686 19.684 0 17.0868 0C12.2026 0 8.05172 2.59378 7.00903 6.22819C4.52785 7.65225 3.0045 10.2657 3.0045 13.1498C3.0045 14.1256 3.18619 15.0992 3.53428 16.0087C1.33435 17.4824 0 19.9496 0 22.6379ZM30.9132 1.875C35.043 1.875 38.6338 4.10118 39.2657 7.05338C39.325 7.33068 39.5068 7.56628 39.7599 7.69407C41.2748 8.45869 42.3696 9.7815 42.8496 11.3432C42.066 10.9527 41.2219 10.7541 40.3415 10.7541H40.3387C39.0631 10.7541 37.7539 11.2215 36.7699 12.0308C36.3825 12.3493 36.325 12.9668 36.64 13.3507C36.9565 13.7364 37.5753 13.7953 37.9594 13.4804C38.6391 12.9235 39.4622 12.6292 40.3406 12.6292C41.3918 12.6292 42.3735 13.0607 43.0837 13.8218C43.0027 14.5666 42.7868 15.2822 42.4373 15.9563C42.1995 16.4152 42.378 16.98 42.8363 17.219C44.8649 18.2767 46.125 20.3531 46.125 22.6379C46.125 25.0274 44.7184 27.2108 42.5415 28.2004C42.2933 28.3133 42.1063 28.5286 42.0297 28.7903C41.9531 29.0521 41.9943 29.3343 42.1424 29.5632C42.7822 30.5517 43.1205 31.6978 43.1205 32.8774C43.1205 35.1 39.9312 37.3185 37.8022 38.4803C37.4168 36.5309 36.3107 34.7629 34.6818 33.5705C34.2858 33.2806 33.6682 33.368 33.3714 33.7732C33.0656 34.191 33.1564 34.7776 33.5742 35.0834C35.9389 36.8144 36.7467 40.1303 35.4328 42.7487C34.4065 44.7942 32.2642 46.125 29.9743 46.125C27.9847 46.125 26.1432 45.167 24.9962 43.549L24.9961 43.4544C24.9998 42.8363 25.0015 41.4649 24.9995 38.3653H30.2148C30.5939 38.3653 30.9357 38.1369 31.0808 37.7867C31.226 37.4364 31.1458 37.0332 30.8779 36.7651C29.4127 35.2991 29.4127 32.9139 30.8778 31.448C32.2991 30.0258 34.7737 30.0301 36.1908 31.448C36.5568 31.8142 37.1503 31.8143 37.5166 31.4483C37.8828 31.0823 37.883 30.4886 37.5169 30.1224C37.3721 29.9776 37.2203 29.8424 37.0632 29.7156L39.4369 27.2779C40.7128 25.9964 40.7113 23.9153 39.4324 22.6358C38.1784 21.381 36.0349 21.3866 34.7865 22.6357C34.4205 23.0019 34.4207 23.5955 34.7869 23.9615C35.1533 24.3275 35.7466 24.3274 36.1126 23.9613C36.6289 23.4448 37.5726 23.4273 38.1061 23.9611C38.656 24.5113 38.656 25.4066 38.1061 25.9569C38.1033 25.9598 38.1004 25.9627 38.0976 25.9657L35.3618 28.7752C35.33 28.808 34.3811 28.5341 34.2619 28.5187C32.5373 28.2955 30.7798 28.8937 29.5517 30.1224C27.8335 31.8415 27.4599 34.4043 28.4308 36.4903H24.9979C24.9957 34.0926 24.9919 30.9205 24.986 26.7222H27.2813V26.9591C27.2813 27.4769 27.701 27.8966 28.2188 27.8966C28.7365 27.8966 29.1563 27.4769 29.1563 26.9591V24.6106C29.1563 24.0928 28.7365 23.6731 28.2188 23.6731C27.701 23.6731 27.2813 24.0928 27.2813 24.6106V24.8471H24.9833C24.9827 24.4038 24.9765 20.2294 24.974 18.6432H27.598C27.7567 19.0807 28.0103 19.491 28.3603 19.8413C28.9808 20.4621 29.8057 20.8039 30.6832 20.8039C31.5607 20.8039 32.3857 20.4621 33.0061 19.8413C33.3721 19.475 33.3719 18.8814 33.0057 18.5153C32.6394 18.1494 32.046 18.1495 31.6799 18.5156C30.435 19.7606 28.3945 17.8124 29.6865 16.5199C30.0525 16.1537 30.0524 15.5601 29.6862 15.1941C29.3331 14.8411 28.7227 14.8318 28.3604 15.1943C27.9117 15.6433 27.6208 16.191 27.4867 16.7681H24.971C24.9673 14.6088 24.9637 12.5647 24.96 10.7496H32.3153C32.564 10.7496 32.8025 10.6507 32.9783 10.4748C34.2588 9.19369 34.2588 7.10925 32.9784 5.82806C31.7342 4.58297 29.57 4.58991 28.3327 5.82797C27.9667 6.19425 27.9668 6.78778 28.3329 7.15378C28.6992 7.51978 29.2926 7.51969 29.6586 7.15369C30.1857 6.62644 31.1283 6.62934 31.6522 7.1535C32.1178 7.61944 32.1893 8.33278 31.8662 8.87456H24.9561C24.9526 7.2735 24.943 3.97622 24.9415 3.67884C26.5533 2.52835 28.7023 1.875 30.9132 1.875ZM5.16366 17.2189C5.62191 16.9799 5.80041 16.4152 5.56256 15.9562C5.10938 15.0817 4.8795 14.1374 4.8795 13.1498C4.8795 10.8308 6.16716 8.74022 8.23997 7.69397C8.49319 7.56619 8.67488 7.33059 8.73422 7.05328C9.36619 4.10119 12.957 1.875 17.0868 1.875C19.3271 1.875 21.478 2.52806 23.0632 3.67781L23.0708 8.87466H19.6822C19.3411 7.42425 18.0377 6.34097 16.4853 6.34097C14.674 6.34097 13.2005 7.81509 13.2005 9.627C13.2005 11.4389 14.674 12.913 16.4853 12.913C17.9025 12.913 19.1129 12.0104 19.5725 10.7497H23.0735L23.0822 16.7682H14.3752C13.9707 15.4117 12.713 14.4197 11.2273 14.4197C9.41607 14.4197 7.9425 15.8938 7.9425 17.7057C7.9425 19.5176 9.41607 20.9918 11.2273 20.9918C12.713 20.9918 13.9707 19.9997 14.3752 18.6432H23.085L23.094 24.8471H21.0415C20.6371 23.4907 19.3793 22.4986 17.8937 22.4986C16.0824 22.4986 14.6089 23.9727 14.6089 25.7846C14.6089 27.5965 16.0824 29.0707 17.8937 29.0707C19.3793 29.0707 20.6371 28.0786 21.0415 26.7221H23.0967L23.111 36.4902H20.3726C19.9555 35.1545 18.7073 34.1822 17.2364 34.1822C15.4252 34.1822 13.9516 35.6563 13.9516 37.4682C13.9516 39.2801 15.4252 40.7543 17.2364 40.7543C18.7368 40.7543 20.0045 39.7424 20.3958 38.3652H23.1137L23.1213 43.5573C22.0086 45.1702 20.1238 46.125 18.0257 46.125C14.6598 46.125 11.9213 43.3849 11.9213 40.0169C11.9213 39.4383 11.4659 39.2076 11.2715 39.109C7.26909 37.0817 4.8796 34.7521 4.8795 32.8774C4.87941 30.5428 6.40884 27.795 8.96812 27.7124C9.21844 27.7049 9.45094 27.5999 9.6225 27.4171C9.79406 27.2352 9.88406 26.9962 9.87563 26.7458C9.86813 26.5012 9.76688 26.2724 9.59063 26.1018C9.41531 25.9312 9.18375 25.8374 8.93906 25.8374H8.93625C8.92781 25.8374 8.91853 25.8374 8.91009 25.8383C7.34287 26.015 5.82 26.6065 4.78162 27.8383C2.99484 26.736 1.875 24.7693 1.875 22.6379C1.875 20.3531 3.1351 18.2767 5.16366 17.2189ZM17.8951 9.627C17.8951 10.405 17.2627 11.038 16.4853 11.038C15.7079 11.038 15.0755 10.405 15.0755 9.627C15.0755 8.84897 15.7079 8.21597 16.4853 8.21597C17.2627 8.21597 17.8951 8.84897 17.8951 9.627ZM12.6371 17.7058C12.6371 18.4838 12.0047 19.1168 11.2273 19.1168C10.4499 19.1168 9.8175 18.4838 9.8175 17.7058C9.8175 16.9278 10.4499 16.2948 11.2273 16.2948C12.0047 16.2948 12.6371 16.9277 12.6371 17.7058ZM19.3034 25.7847C19.3034 26.5628 18.671 27.1957 17.8936 27.1957C17.1162 27.1957 16.4838 26.5628 16.4838 25.7847C16.4838 25.0067 17.1162 24.3737 17.8936 24.3737C18.671 24.3737 19.3034 25.0067 19.3034 25.7847ZM18.6462 37.4683C18.6462 38.2463 18.0138 38.8793 17.2364 38.8793C16.459 38.8793 15.8266 38.2463 15.8266 37.4683C15.8266 36.6903 16.459 36.0573 17.2364 36.0573C18.0138 36.0573 18.6462 36.6903 18.6462 37.4683Z" fill="#007573"/>
<path d="M12.4162 31.0809C12.1556 31.0584 11.8969 31.1466 11.7037 31.3228C11.5294 31.4822 11.4225 31.6997 11.4028 31.935C11.3812 32.1853 11.4581 32.4281 11.6203 32.6194C11.7815 32.8106 12.0075 32.9278 12.2569 32.9494C12.284 32.9512 12.3103 32.9522 12.3375 32.9522C12.5719 32.9522 12.7959 32.865 12.9694 32.7066C13.1437 32.5472 13.2506 32.3297 13.2712 32.0944C13.2712 32.0934 13.2712 32.0934 13.2703 32.0934C13.3134 31.5788 12.9309 31.1241 12.4162 31.0809Z" fill="#007573"/>
<path d="M36.3075 19.2366C36.3075 19.2366 36.3075 19.2366 36.3066 19.2356C36.1312 19.0659 35.8997 18.9731 35.6559 18.9731C35.3991 18.9731 35.1591 19.0744 34.9809 19.2591C34.8075 19.4391 34.7137 19.6763 34.7184 19.9266C34.7222 20.1769 34.8234 20.4103 35.0034 20.5838C35.0034 20.5838 35.0034 20.5847 35.0044 20.5847C35.1797 20.7544 35.4112 20.8481 35.655 20.8481C35.9119 20.8481 36.1519 20.7459 36.33 20.5613C36.6881 20.19 36.6787 19.5966 36.3075 19.2366Z" fill="#007573"/>
<path d="M54.7926 37H55.5852V34.6094H57.017C58.5415 34.6094 59.2287 33.6825 59.2287 32.5256C59.2287 31.3686 58.5415 30.4545 57.0043 30.4545H54.7926V37ZM55.5852 33.9062V31.1577H56.9787C58.043 31.1577 58.4489 31.7393 58.4489 32.5256C58.4489 33.3118 58.043 33.9062 56.9915 33.9062H55.5852ZM62.3448 37.1023C63.6744 37.1023 64.5692 36.0923 64.5692 34.571C64.5692 33.0369 63.6744 32.027 62.3448 32.027C61.0153 32.027 60.1204 33.0369 60.1204 34.571C60.1204 36.0923 61.0153 37.1023 62.3448 37.1023ZM62.3448 36.4247C61.3349 36.4247 60.8746 35.5554 60.8746 34.571C60.8746 33.5866 61.3349 32.7045 62.3448 32.7045C63.3548 32.7045 63.815 33.5866 63.815 34.571C63.815 35.5554 63.3548 36.4247 62.3448 36.4247ZM69.1979 33.1903C68.9614 32.4936 68.4308 32.027 67.4593 32.027C66.4237 32.027 65.6567 32.6151 65.6567 33.446C65.6567 34.1236 66.0594 34.5774 66.9607 34.7884L67.7789 34.9801C68.2742 35.0952 68.5075 35.3317 68.5075 35.6705C68.5075 36.0923 68.0601 36.4375 67.357 36.4375C66.7401 36.4375 66.3534 36.1722 66.2192 35.6449L65.5033 35.8239C65.6791 36.658 66.3662 37.1023 67.3698 37.1023C68.5107 37.1023 69.2874 36.479 69.2874 35.6321C69.2874 34.9482 68.8591 34.5167 67.9834 34.3026L67.2547 34.1236C66.673 33.9798 66.411 33.7848 66.411 33.4077C66.411 32.9858 66.8584 32.679 67.4593 32.679C68.1176 32.679 68.3893 33.0433 68.5203 33.3821L69.1979 33.1903ZM73.9 33.1903C73.6635 32.4936 73.133 32.027 72.1614 32.027C71.1259 32.027 70.3588 32.6151 70.3588 33.446C70.3588 34.1236 70.7615 34.5774 71.6628 34.7884L72.481 34.9801C72.9764 35.0952 73.2097 35.3317 73.2097 35.6705C73.2097 36.0923 72.7623 36.4375 72.0591 36.4375C71.4423 36.4375 71.0556 36.1722 70.9213 35.6449L70.2054 35.8239C70.3812 36.658 71.0684 37.1023 72.0719 37.1023C73.2129 37.1023 73.9895 36.479 73.9895 35.6321C73.9895 34.9482 73.5613 34.5167 72.6855 34.3026L71.9569 34.1236C71.3752 33.9798 71.1131 33.7848 71.1131 33.4077C71.1131 32.9858 71.5605 32.679 72.1614 32.679C72.8198 32.679 73.0914 33.0433 73.2225 33.3821L73.9 33.1903ZM75.1249 37H75.8792V32.0909H75.1249V37ZM75.5084 31.2727C75.8025 31.2727 76.0454 31.0426 76.0454 30.7614C76.0454 30.4801 75.8025 30.25 75.5084 30.25C75.2144 30.25 74.9715 30.4801 74.9715 30.7614C74.9715 31.0426 75.2144 31.2727 75.5084 31.2727ZM77.3629 37H78.0916V36.2457H78.1811C78.3473 36.5142 78.6669 37.1023 79.6129 37.1023C80.8402 37.1023 81.6967 36.1179 81.6967 34.5582C81.6967 33.0114 80.8402 32.027 79.6001 32.027C78.6413 32.027 78.3473 32.6151 78.1811 32.8707H78.1172V30.4545H77.3629V37ZM78.1044 34.5455C78.1044 33.446 78.5902 32.7045 79.5107 32.7045C80.4695 32.7045 80.9425 33.5099 80.9425 34.5455C80.9425 35.5938 80.4567 36.4247 79.5107 36.4247C78.603 36.4247 78.1044 35.6577 78.1044 34.5455ZM82.8505 37H83.6048V32.0909H82.8505V37ZM83.234 31.2727C83.5281 31.2727 83.771 31.0426 83.771 30.7614C83.771 30.4801 83.5281 30.25 83.234 30.25C82.94 30.25 82.6971 30.4801 82.6971 30.7614C82.6971 31.0426 82.94 31.2727 83.234 31.2727ZM85.7405 30.4545H84.9862V37H85.7405V30.4545ZM87.122 37H87.8762V32.0909H87.122V37ZM87.5055 31.2727C87.7995 31.2727 88.0424 31.0426 88.0424 30.7614C88.0424 30.4801 87.7995 30.25 87.5055 30.25C87.2115 30.25 86.9686 30.4801 86.9686 30.7614C86.9686 31.0426 87.2115 31.2727 87.5055 31.2727ZM91.3927 32.0909H90.3444V30.9148H89.5901V32.0909H88.8486V32.7301H89.5901V35.7983C89.5901 36.6548 90.2805 37.0639 90.9197 37.0639C91.2009 37.0639 91.3799 37.0128 91.4822 36.9744L91.3287 36.2969C91.2648 36.3097 91.1626 36.3352 90.9964 36.3352C90.664 36.3352 90.3444 36.233 90.3444 35.5938V32.7301H91.3927V32.0909ZM92.5273 37H93.2815V32.0909H92.5273V37ZM92.9108 31.2727C93.2048 31.2727 93.4477 31.0426 93.4477 30.7614C93.4477 30.4801 93.2048 30.25 92.9108 30.25C92.6167 30.25 92.3738 30.4801 92.3738 30.7614C92.3738 31.0426 92.6167 31.2727 92.9108 31.2727ZM96.7212 37.1023C97.7184 37.1023 98.4471 36.6037 98.6772 35.8622L97.9485 35.6577C97.7567 36.169 97.3125 36.4247 96.7212 36.4247C95.8359 36.4247 95.2255 35.8526 95.1903 34.8011H98.7539V34.4815C98.7539 32.6534 97.6673 32.027 96.6445 32.027C95.315 32.027 94.4329 33.0753 94.4329 34.5838C94.4329 36.0923 95.3022 37.1023 96.7212 37.1023ZM95.1903 34.1491C95.2415 33.3853 95.7816 32.7045 96.6445 32.7045C97.4627 32.7045 97.9869 33.3182 97.9869 34.1491H95.1903ZM103.379 33.1903C103.142 32.4936 102.612 32.027 101.64 32.027C100.604 32.027 99.8374 32.6151 99.8374 33.446C99.8374 34.1236 100.24 34.5774 101.141 34.7884L101.96 34.9801C102.455 35.0952 102.688 35.3317 102.688 35.6705C102.688 36.0923 102.241 36.4375 101.538 36.4375C100.921 36.4375 100.534 36.1722 100.4 35.6449L99.6839 35.8239C99.8597 36.658 100.547 37.1023 101.55 37.1023C102.691 37.1023 103.468 36.479 103.468 35.6321C103.468 34.9482 103.04 34.5167 102.164 34.3026L101.435 34.1236C100.854 33.9798 100.592 33.7848 100.592 33.4077C100.592 32.9858 101.039 32.679 101.64 32.679C102.298 32.679 102.57 33.0433 102.701 33.3821L103.379 33.1903ZM112.504 32.5C112.261 31.1577 111.187 30.3651 109.87 30.3651C108.196 30.3651 106.981 31.6562 106.981 33.7273C106.981 35.7983 108.196 37.0895 109.87 37.0895C111.187 37.0895 112.261 36.2969 112.504 34.9545H111.711C111.52 35.8622 110.74 36.348 109.87 36.348C108.682 36.348 107.748 35.4276 107.748 33.7273C107.748 32.027 108.682 31.1065 109.87 31.1065C110.74 31.1065 111.52 31.5923 111.711 32.5H112.504ZM115.677 37.1023C117.006 37.1023 117.901 36.0923 117.901 34.571C117.901 33.0369 117.006 32.027 115.677 32.027C114.347 32.027 113.452 33.0369 113.452 34.571C113.452 36.0923 114.347 37.1023 115.677 37.1023ZM115.677 36.4247C114.667 36.4247 114.207 35.5554 114.207 34.571C114.207 33.5866 114.667 32.7045 115.677 32.7045C116.687 32.7045 117.147 33.5866 117.147 34.571C117.147 35.5554 116.687 36.4247 115.677 36.4247ZM121.034 38.9432C122.21 38.9432 123.156 38.4062 123.156 37.1406V32.0909H122.428V32.8707H122.351C122.185 32.6151 121.878 32.027 120.919 32.027C119.679 32.027 118.823 33.0114 118.823 34.5199C118.823 36.054 119.717 36.9233 120.906 36.9233C121.865 36.9233 122.172 36.3608 122.338 36.0923H122.402V37.0895C122.402 37.9077 121.827 38.2784 121.034 38.2784C120.142 38.2784 119.829 37.8086 119.628 37.5369L119.027 37.9588C119.334 38.4734 119.938 38.9432 121.034 38.9432ZM121.009 36.2457C120.063 36.2457 119.577 35.5298 119.577 34.5071C119.577 33.5099 120.05 32.7045 121.009 32.7045C121.929 32.7045 122.415 33.446 122.415 34.5071C122.415 35.5938 121.916 36.2457 121.009 36.2457ZM125.291 34.0469C125.291 33.1903 125.822 32.7045 126.544 32.7045C127.244 32.7045 127.669 33.1616 127.669 33.9318V37H128.423V33.8807C128.423 32.6278 127.755 32.027 126.761 32.027C126.02 32.027 125.56 32.3594 125.33 32.858H125.266V32.0909H124.537V37H125.291V34.0469ZM129.802 37H130.556V32.0909H129.802V37ZM130.185 31.2727C130.479 31.2727 130.722 31.0426 130.722 30.7614C130.722 30.4801 130.479 30.25 130.185 30.25C129.891 30.25 129.648 30.4801 129.648 30.7614C129.648 31.0426 129.891 31.2727 130.185 31.2727ZM134.072 32.0909H133.024V30.9148H132.27V32.0909H131.528V32.7301H132.27V35.7983C132.27 36.6548 132.96 37.0639 133.599 37.0639C133.881 37.0639 134.06 37.0128 134.162 36.9744L134.008 36.2969C133.945 36.3097 133.842 36.3352 133.676 36.3352C133.344 36.3352 133.024 36.233 133.024 35.5938V32.7301H134.072V32.0909ZM135.207 37H135.961V32.0909H135.207V37ZM135.59 31.2727C135.884 31.2727 136.127 31.0426 136.127 30.7614C136.127 30.4801 135.884 30.25 135.59 30.25C135.296 30.25 135.054 30.4801 135.054 30.7614C135.054 31.0426 135.296 31.2727 135.59 31.2727ZM141.357 32.0909H140.539L139.184 36.0028H139.132L137.777 32.0909H136.959L138.775 37H139.542L141.357 32.0909ZM144.235 37.1023C145.232 37.1023 145.961 36.6037 146.191 35.8622L145.462 35.6577C145.27 36.169 144.826 36.4247 144.235 36.4247C143.35 36.4247 142.739 35.8526 142.704 34.8011H146.268V34.4815C146.268 32.6534 145.181 32.027 144.158 32.027C142.829 32.027 141.947 33.0753 141.947 34.5838C141.947 36.0923 142.816 37.1023 144.235 37.1023ZM142.704 34.1491C142.755 33.3853 143.295 32.7045 144.158 32.7045C144.976 32.7045 145.501 33.3182 145.501 34.1491H142.704ZM58.3722 43.0909H59.1392C59.104 42.1033 58.1932 41.3651 56.9276 41.3651C55.6747 41.3651 54.6903 42.0938 54.6903 43.1932C54.6903 44.0753 55.3295 44.5994 56.3523 44.8935L57.1577 45.1236C57.848 45.3153 58.4616 45.5582 58.4616 46.2102C58.4616 46.9261 57.7713 47.3991 56.8636 47.3991C56.0838 47.3991 55.3935 47.054 55.3295 46.3125H54.5114C54.5881 47.3864 55.4574 48.1151 56.8636 48.1151C58.3722 48.1151 59.2287 47.2841 59.2287 46.223C59.2287 44.9957 58.0653 44.5994 57.3878 44.4205L56.723 44.2415C56.2372 44.1136 55.4574 43.858 55.4574 43.1548C55.4574 42.5284 56.0327 42.0682 56.902 42.0682C57.6946 42.0682 58.2955 42.4453 58.3722 43.0909ZM60.4296 48H61.1839V46.1623L61.7112 45.6733L63.5489 48H64.5077L62.2801 45.1875L64.3543 43.0909H63.4211L61.2733 45.277H61.1839V41.4545H60.4296V48ZM65.3251 48H66.0794V43.0909H65.3251V48ZM65.7086 42.2727C66.0027 42.2727 66.2456 42.0426 66.2456 41.7614C66.2456 41.4801 66.0027 41.25 65.7086 41.25C65.4146 41.25 65.1717 41.4801 65.1717 41.7614C65.1717 42.0426 65.4146 42.2727 65.7086 42.2727ZM68.2151 41.4545H67.4608V48H68.2151V41.4545ZM70.3509 41.4545H69.5966V48H70.3509V41.4545ZM75.2096 44.1903C74.9731 43.4936 74.4426 43.027 73.471 43.027C72.4355 43.027 71.6684 43.6151 71.6684 44.446C71.6684 45.1236 72.0711 45.5774 72.9724 45.7884L73.7906 45.9801C74.286 46.0952 74.5193 46.3317 74.5193 46.6705C74.5193 47.0923 74.0718 47.4375 73.3687 47.4375C72.7519 47.4375 72.3651 47.1722 72.2309 46.6449L71.515 46.8239C71.6908 47.658 72.3779 48.1023 73.3815 48.1023C74.5225 48.1023 75.2991 47.479 75.2991 46.6321C75.2991 45.9482 74.8708 45.5167 73.9951 45.3026L73.2664 45.1236C72.6847 44.9798 72.4227 44.7848 72.4227 44.4077C72.4227 43.9858 72.8701 43.679 73.471 43.679C74.1294 43.679 74.401 44.0433 74.532 44.3821L75.2096 44.1903ZM81.0879 48C83.0822 48 84.2072 46.7599 84.2072 44.7145C84.2072 42.6818 83.0822 41.4545 81.1774 41.4545H79.068V48H81.0879ZM79.8606 47.2969V42.1577H81.1262C82.6603 42.1577 83.4402 43.1293 83.4402 44.7145C83.4402 46.3125 82.6603 47.2969 81.0368 47.2969H79.8606ZM87.4927 48.1023C88.4899 48.1023 89.2186 47.6037 89.4487 46.8622L88.72 46.6577C88.5282 47.169 88.084 47.4247 87.4927 47.4247C86.6074 47.4247 85.997 46.8526 85.9618 45.8011H89.5254V45.4815C89.5254 43.6534 88.4387 43.027 87.416 43.027C86.0865 43.027 85.2044 44.0753 85.2044 45.5838C85.2044 47.0923 86.0737 48.1023 87.4927 48.1023ZM85.9618 45.1491C86.013 44.3853 86.5531 43.7045 87.416 43.7045C88.2342 43.7045 88.7583 44.3182 88.7583 45.1491H85.9618ZM94.687 43.0909H93.8688L92.5137 47.0028H92.4625L91.1074 43.0909H90.2892L92.1046 48H92.8716L94.687 43.0909ZM97.565 48.1023C98.5621 48.1023 99.2908 47.6037 99.521 46.8622L98.7923 46.6577C98.6005 47.169 98.1562 47.4247 97.565 47.4247C96.6797 47.4247 96.0692 46.8526 96.0341 45.8011H99.5977V45.4815C99.5977 43.6534 98.511 43.027 97.4883 43.027C96.1587 43.027 95.2766 44.0753 95.2766 45.5838C95.2766 47.0923 96.146 48.1023 97.565 48.1023ZM96.0341 45.1491C96.0852 44.3853 96.6254 43.7045 97.4883 43.7045C98.3065 43.7045 98.8306 44.3182 98.8306 45.1491H96.0341ZM101.499 41.4545H100.745V48H101.499V41.4545ZM104.875 48.1023C106.205 48.1023 107.1 47.0923 107.1 45.571C107.1 44.0369 106.205 43.027 104.875 43.027C103.546 43.027 102.651 44.0369 102.651 45.571C102.651 47.0923 103.546 48.1023 104.875 48.1023ZM104.875 47.4247C103.865 47.4247 103.405 46.5554 103.405 45.571C103.405 44.5866 103.865 43.7045 104.875 43.7045C105.885 43.7045 106.345 44.5866 106.345 45.571C106.345 46.5554 105.885 47.4247 104.875 47.4247ZM108.251 49.8409H109.005V47.2457H109.069C109.235 47.5142 109.555 48.1023 110.501 48.1023C111.728 48.1023 112.585 47.1179 112.585 45.5582C112.585 44.0114 111.728 43.027 110.488 43.027C109.529 43.027 109.235 43.6151 109.069 43.8707H108.98V43.0909H108.251V49.8409ZM108.992 45.5455C108.992 44.446 109.478 43.7045 110.399 43.7045C111.357 43.7045 111.83 44.5099 111.83 45.5455C111.83 46.5938 111.345 47.4247 110.399 47.4247C109.491 47.4247 108.992 46.6577 108.992 45.5455ZM113.735 48H114.49V44.9318C114.49 44.2127 115.014 43.7045 115.602 43.7045C116.174 43.7045 116.573 44.0785 116.573 44.6378V48H117.34V44.804C117.34 44.1712 117.737 43.7045 118.427 43.7045C118.964 43.7045 119.424 43.989 119.424 44.7145V48H120.178V44.7145C120.178 43.5607 119.558 43.027 118.683 43.027C117.98 43.027 117.465 43.3498 117.213 43.858H117.161C116.919 43.3338 116.49 43.027 115.845 43.027C115.205 43.027 114.732 43.3338 114.528 43.858H114.464V43.0909H113.735V48ZM123.616 48.1023C124.613 48.1023 125.342 47.6037 125.572 46.8622L124.843 46.6577C124.651 47.169 124.207 47.4247 123.616 47.4247C122.73 47.4247 122.12 46.8526 122.085 45.8011H125.648V45.4815C125.648 43.6534 124.562 43.027 123.539 43.027C122.21 43.027 121.327 44.0753 121.327 45.5838C121.327 47.0923 122.197 48.1023 123.616 48.1023ZM122.085 45.1491C122.136 44.3853 122.676 43.7045 123.539 43.7045C124.357 43.7045 124.881 44.3182 124.881 45.1491H122.085ZM127.55 45.0469C127.55 44.1903 128.081 43.7045 128.803 43.7045C129.503 43.7045 129.928 44.1616 129.928 44.9318V48H130.682V44.8807C130.682 43.6278 130.014 43.027 129.02 43.027C128.279 43.027 127.819 43.3594 127.588 43.858H127.525V43.0909H126.796V48H127.55V45.0469ZM134.195 43.0909H133.147V41.9148H132.393V43.0909H131.651V43.7301H132.393V46.7983C132.393 47.6548 133.083 48.0639 133.722 48.0639C134.004 48.0639 134.183 48.0128 134.285 47.9744L134.131 47.2969C134.068 47.3097 133.965 47.3352 133.799 47.3352C133.467 47.3352 133.147 47.233 133.147 46.5938V43.7301H134.195V43.0909ZM143.231 43.5C142.988 42.1577 141.914 41.3651 140.597 41.3651C138.922 41.3651 137.708 42.6562 137.708 44.7273C137.708 46.7983 138.922 48.0895 140.597 48.0895C141.914 48.0895 142.988 47.2969 143.231 45.9545H142.438C142.246 46.8622 141.466 47.348 140.597 47.348C139.408 47.348 138.475 46.4276 138.475 44.7273C138.475 43.027 139.408 42.1065 140.597 42.1065C141.466 42.1065 142.246 42.5923 142.438 43.5H143.231ZM146.467 48.1023C147.464 48.1023 148.193 47.6037 148.423 46.8622L147.695 46.6577C147.503 47.169 147.059 47.4247 146.467 47.4247C145.582 47.4247 144.972 46.8526 144.936 45.8011H148.5V45.4815C148.5 43.6534 147.413 43.027 146.391 43.027C145.061 43.027 144.179 44.0753 144.179 45.5838C144.179 47.0923 145.048 48.1023 146.467 48.1023ZM144.936 45.1491C144.988 44.3853 145.528 43.7045 146.391 43.7045C147.209 43.7045 147.733 44.3182 147.733 45.1491H144.936ZM150.402 45.0469C150.402 44.1903 150.932 43.7045 151.654 43.7045C152.354 43.7045 152.779 44.1616 152.779 44.9318V48H153.534V44.8807C153.534 43.6278 152.866 43.027 151.872 43.027C151.13 43.027 150.67 43.3594 150.44 43.858H150.376V43.0909H149.647V48H150.402V45.0469ZM157.047 43.0909H155.999V41.9148H155.244V43.0909H154.503V43.7301H155.244V46.7983C155.244 47.6548 155.935 48.0639 156.574 48.0639C156.855 48.0639 157.034 48.0128 157.136 47.9744L156.983 47.2969C156.919 47.3097 156.817 47.3352 156.651 47.3352C156.318 47.3352 155.999 47.233 155.999 46.5938V43.7301H157.047V43.0909ZM160.187 48.1023C161.184 48.1023 161.913 47.6037 162.143 46.8622L161.414 46.6577C161.223 47.169 160.778 47.4247 160.187 47.4247C159.302 47.4247 158.691 46.8526 158.656 45.8011H162.22V45.4815C162.22 43.6534 161.133 43.027 160.11 43.027C158.781 43.027 157.899 44.0753 157.899 45.5838C157.899 47.0923 158.768 48.1023 160.187 48.1023ZM158.656 45.1491C158.707 44.3853 159.247 43.7045 160.11 43.7045C160.929 43.7045 161.453 44.3182 161.453 45.1491H158.656ZM163.367 48H164.121V44.8935C164.121 44.2287 164.646 43.7429 165.361 43.7429C165.563 43.7429 165.771 43.7812 165.822 43.794V43.027C165.735 43.0206 165.537 43.0142 165.425 43.0142C164.837 43.0142 164.326 43.3466 164.147 43.8324H164.096V43.0909H163.367V48Z" fill="#2D3748"/>
<path d="M55.125 23H59.8636V17.8182H62.4886C66.4688 17.8182 69.1364 15.4744 69.1364 11.7159C69.1364 8 66.5369 5.54545 62.6591 5.54545H55.125V23ZM59.8636 14.1364V9.32954H61.5341C63.196 9.32954 64.1932 10.2159 64.1932 11.7159C64.1932 13.2074 63.196 14.1364 61.5341 14.1364H59.8636ZM87.1705 12.0909C86.7955 7.76136 83.625 5.30682 79.2273 5.30682C74.5227 5.30682 70.8068 8.44318 70.8068 14.2727C70.8068 20.0767 74.4205 23.2386 79.2273 23.2386C84.3409 23.2386 86.9318 19.6932 87.1705 16.7273L82.3636 16.6932C82.125 18.1847 81.0682 19.1136 79.3295 19.1136C77.0199 19.1136 75.6818 17.4773 75.6818 14.2727C75.6818 11.2386 76.9773 9.43182 79.3636 9.43182C81.1875 9.43182 82.2273 10.5057 82.3636 12.0909H87.1705ZM98.7294 11H103.263C103.246 7.57386 100.604 5.30682 96.3771 5.30682C92.2266 5.30682 89.2947 7.53977 89.3203 10.8636C89.3118 13.5909 91.2038 15.108 94.2976 15.7727L96.0362 16.1477C97.9794 16.5739 98.6442 17.0597 98.6612 17.8523C98.6442 18.7131 97.8601 19.3182 96.343 19.3182C94.5277 19.3182 93.4538 18.4659 93.3771 16.8636H88.8771C88.8942 21.2443 91.8601 23.2045 96.4112 23.2045C100.835 23.2045 103.485 21.2955 103.502 17.8523C103.485 15.1932 101.9 13.3267 98.0476 12.5L96.6158 12.1932C94.9624 11.8438 94.2209 11.358 94.2635 10.5227C94.272 9.75568 94.9112 9.19318 96.3771 9.19318C97.9112 9.19318 98.6357 9.86648 98.7294 11ZM112.021 23C117.339 23 120.714 19.7273 120.714 14.2727C120.714 8.81818 117.339 5.54545 111.952 5.54545H105.305V23H112.021ZM110.043 18.9773V9.56818H111.714C114.441 9.56818 115.941 10.625 115.941 14.2727C115.941 17.9205 114.441 18.9773 111.85 18.9773H110.043ZM139.202 12.0909C138.827 7.76136 135.656 5.30682 131.259 5.30682C126.554 5.30682 122.838 8.44318 122.838 14.2727C122.838 20.0767 126.452 23.2386 131.259 23.2386C136.372 23.2386 138.963 19.6932 139.202 16.7273L134.395 16.6932C134.156 18.1847 133.099 19.1136 131.361 19.1136C129.051 19.1136 127.713 17.4773 127.713 14.2727C127.713 11.2386 129.009 9.43182 131.395 9.43182C133.219 9.43182 134.259 10.5057 134.395 12.0909H139.202Z" fill="#2D3748"/>
</svg>
